<svg xmlns="http://www.w3.org/2000/svg" xmlns:xlink="http://www.w3.org/1999/xlink" width="1080" zoomAndPan="magnify" viewBox="0 0 810 809.999993" height="1080" preserveAspectRatio="xMidYMid meet" version="1.0"><path fill="#ffffff" d="M 321.941406 685.871094 C 303.621094 685.867188 285.675781 686.375 267.765625 685.769531 C 218.433594 684.109375 181.738281 661.507812 159.332031 617.410156 C 144.769531 588.746094 144.019531 558.632812 152.851562 527.855469 C 164.941406 485.730469 181.339844 445.46875 203.140625 407.445312 C 231.714844 357.617188 267.65625 313.761719 310.492188 275.539062 C 312.164062 274.046875 312.914062 273 311.921875 270.609375 C 299.929688 241.78125 288.789062 212.578125 275.957031 184.132812 C 265.832031 161.679688 278.007812 142.085938 301.105469 138.207031 C 313.472656 136.125 325.238281 137.710938 336.296875 143.824219 C 338.601562 145.097656 341 146.210938 343.289062 147.511719 C 345.480469 148.757812 347.027344 148.6875 348.480469 146.257812 C 356.363281 133.078125 368.3125 126.277344 383.414062 125.914062 C 399.472656 125.53125 415.578125 124.964844 431.621094 126.296875 C 445.304688 127.429688 455.734375 134.289062 462.828125 145.910156 C 464.707031 148.996094 466.167969 149.140625 468.988281 147.554688 C 477.03125 143.023438 485.164062 138.660156 494.617188 137.722656 C 504.800781 136.710938 514.667969 137.78125 523.851562 142.484375 C 537.488281 149.46875 543.097656 165.304688 537.183594 179.640625 C 524.820312 209.59375 512.472656 239.558594 499.980469 269.457031 C 498.816406 272.242188 499.089844 273.832031 501.351562 275.847656 C 546.816406 316.417969 584.421875 363.285156 613.597656 416.820312 C 634.878906 455.871094 651.863281 496.757812 661.523438 540.207031 C 670.3125 579.75 660.089844 615.148438 633.359375 645.539062 C 614.839844 666.59375 591.425781 679.167969 563.835938 683.972656 C 556.5625 685.242188 549.210938 685.875 541.824219 685.875 C 468.664062 685.886719 395.5 685.875 321.941406 685.871094 M 615.046875 617.039062 C 631.714844 593.644531 636.007812 568.023438 628.585938 540.414062 C 615.59375 492.082031 595.742188 446.75 568.890625 404.496094 C 543.480469 364.511719 512.960938 328.902344 477.378906 297.621094 C 475.710938 296.15625 474.007812 295.335938 471.722656 295.335938 C 427.6875 295.378906 383.65625 295.375 339.621094 295.34375 C 337.660156 295.34375 336.117188 295.894531 334.625 297.203125 C 303.574219 324.484375 276.320312 355.152344 252.863281 389.171875 C 221.539062 434.605469 198.816406 484.066406 183.820312 537.144531 C 179.746094 551.574219 178.089844 566.167969 180.882812 580.902344 C 189.167969 624.628906 227.542969 653.539062 268.363281 653.371094 C 360.117188 652.992188 451.878906 653.316406 543.636719 653.21875 C 573.195312 653.1875 596.71875 640.746094 615.046875 617.039062 M 308.753906 169.804688 C 305.738281 170.402344 306.324219 172.214844 307.164062 174.257812 C 318.808594 202.496094 330.464844 230.734375 341.992188 259.023438 C 343.28125 262.179688 345 263.269531 348.445312 263.257812 C 386.390625 263.128906 424.335938 263.101562 462.28125 263.289062 C 466.445312 263.308594 468.304688 261.894531 469.800781 258.199219 C 478.585938 236.46875 487.605469 214.832031 496.535156 193.160156 C 499.582031 185.761719 502.589844 178.34375 505.738281 170.625 C 500.300781 168.632812 495.738281 170.011719 491.367188 172.304688 C 480.867188 177.808594 470.503906 183.578125 459.929688 188.929688 C 448.925781 194.5 437.511719 188.222656 435.878906 176.042969 C 435.570312 173.75 436.316406 171.605469 436.394531 169.371094 C 436.65625 161.808594 433.480469 158.394531 425.890625 158.371094 C 412.847656 158.335938 399.800781 158.351562 386.757812 158.355469 C 377.628906 158.355469 374.21875 162.023438 375.375 171.054688 C 376.261719 177.949219 374.421875 183.65625 368.675781 187.652344 C 362.933594 191.640625 356.902344 191.472656 350.78125 188.171875 C 340.808594 182.796875 330.753906 177.582031 320.761719 172.246094 C 317.175781 170.335938 313.40625 169.453125 308.753906 169.804688 Z M 308.753906 169.804688 " fill-opacity="1" fill-rule="nonzero"/><path fill="#ffffff" d="M 388.945312 437.5 C 389.902344 428.5625 395.527344 423.25 404.09375 422.984375 C 407.863281 422.867188 411.636719 422.964844 414.945312 422.964844 C 415.953125 421.535156 415.5625 420.785156 415.179688 420.117188 C 409.367188 410.011719 401.113281 403.199219 389.113281 402.773438 C 376.210938 402.316406 363.28125 402.652344 350.363281 402.597656 C 348.265625 402.589844 346.148438 402.453125 344.066406 402.171875 C 334.617188 400.894531 329.089844 393.972656 329.632812 384.203125 C 330.105469 375.742188 337.035156 369.253906 346.035156 369.242188 C 385.710938 369.1875 425.386719 369.199219 465.0625 369.261719 C 474.445312 369.277344 481.363281 375.761719 481.925781 384.703125 C 482.507812 394.035156 476.585938 401.09375 466.972656 402.191406 C 458.964844 403.109375 450.90625 402.40625 442.875 402.578125 C 441.203125 402.613281 439.472656 402.257812 437.816406 403.109375 C 437.859375 404.695312 439.226562 405.28125 440.097656 406.144531 C 443.582031 409.605469 446.957031 413.277344 448.859375 417.761719 C 450.734375 422.191406 453.550781 423.445312 458.042969 423.042969 C 461.28125 422.753906 464.605469 422.652344 467.863281 423.542969 C 475.601562 425.65625 480.160156 431.882812 479.53125 439.660156 C 478.9375 447 472.679688 453.832031 465.109375 453.210938 C 456.738281 452.527344 453.902344 455.828125 451.449219 463.382812 C 446.921875 477.316406 437.273438 487.855469 425.046875 495.9375 C 423.957031 496.65625 422.839844 497.328125 421.765625 498.003906 C 421.777344 499.800781 423.238281 500.246094 424.195312 500.992188 C 438.359375 512.046875 446.632812 526.117188 447.308594 544.4375 C 447.578125 551.644531 448.6875 558.832031 449.695312 565.988281 C 450.441406 571.265625 452.875 575.5 457.621094 578.574219 C 464.351562 582.9375 466.660156 590.125 464.265625 597.171875 C 462.324219 602.878906 456.355469 606.378906 448.609375 606.132812 C 440.960938 605.890625 434.648438 602.5625 429.457031 597.105469 C 423.675781 591.027344 420.472656 583.503906 418.265625 575.574219 C 416.0625 567.683594 414.921875 559.59375 415.050781 551.378906 C 415.128906 546.613281 414.898438 541.847656 413.855469 537.234375 C 410.832031 523.894531 401.191406 517.898438 388.730469 515.214844 C 383.523438 514.097656 378.242188 514.355469 372.976562 514.34375 C 364.273438 514.332031 355.570312 514.496094 346.875 514.296875 C 335.121094 514.027344 328.191406 504.902344 331.242188 494.015625 C 332.808594 488.425781 337.601562 484.417969 344.015625 483.855469 C 356.507812 482.761719 369.039062 483.503906 381.554688 483.394531 C 398.925781 483.246094 411.21875 474.328125 416.742188 457.78125 C 417.765625 454.710938 417.394531 453.289062 413.839844 453.472656 C 410.949219 453.625 408.042969 453.519531 405.144531 453.484375 C 395.417969 453.378906 389.402344 447.566406 388.945312 437.5 Z M 388.945312 437.5 " fill-opacity="1" fill-rule="nonzero"/></svg>